<svg xmlns="http://www.w3.org/2000/svg" viewBox="0 0 50 50" fill-rule="evenodd" clip-rule="evenodd" stroke-linejoin="round" stroke-miterlimit="1.414" width="500" height="500" style="fill: rgb(255, 255, 255);">
    <path d="M25,45c-12.158,0 -22,-9.75 -22,-21.794l0,-13.88c0,-1.835 1.505,-3.326 3.358,-3.326l37.284,0c1.853,0 3.358,1.491 3.358,3.326l0,13.88c0,12.044 -9.842,21.794 -22,21.794Zm0,-11c-0.695,0 -1.383,-0.188 -2.084,-0.803l-10.916,-11.197c-1.158,-1.147 -1.242,-3.153 -0.084,-4.185c1.158,-1.147 3.01,-1.147 4.052,0l9.032,8.832l8.916,-8.832c1.158,-1.147 3.01,-1.147 4.052,0c1.158,1.147 1.19,3.153 0.032,4.185l-11.032,11.197c-0.55,0.637 -1.273,0.803 -1.968,0.803Z"/>
</svg>